# xmcd CD database file
#
# Track frame offsets:
#	150
#	21923
#	41493
#	63040
#	80833
#	98195
#	118940
#	138718
#	168805
#	184793
#	204113
#	222133
#	243510
#	263450
#	281450
#	302685
#
# Disc length: 4377 seconds
#
# Revision: 1
# Processed by: cddbd v1.5.2PL0 Copyright (c) Steve Scherf et al.
# Submitted via: CDex 1.70beta2
#
DISCID=da111710
DTITLE=Simple Minds - Glittering Prize
DYEAR=1992
DGENRE=Pop
TTITLE0=Waterfront
TTITLE1=Dont You(Forget About Me)
TTITLE2=Alive And Kicking
TTITLE3=Sanctify Yourself
TTITLE4=Love Song
TTITLE5=Someone Somewhere In Summertime
TTITLE6=See The Lights
TTITLE7=Belfast Child
TTITLE8=The American
TTITLE9=All The Things She Said
TTITLE10=Promised You A Miracle
TTITLE11=Ghostdancing
TTITLE12=Speed Your Love To Me
TTITLE13=Glittering Prize
TTITLE14=Let There Be Love
TTITLE15=Mandela Day
EXTD=YEAR: 1992
EXTT0=
EXTT1=
EXTT2=
EXTT3=
EXTT4=
EXTT5=
EXTT6=
EXTT7=
EXTT8=
EXTT9=
EXTT10=
EXTT11=
EXTT12=
EXTT13=
EXTT14=
EXTT15=
PLAYORDER=
